<mxfile host="app.diagrams.net" modified="2021-12-29T06:14:10.916Z" agent="5.0 (Macintosh; Intel Mac OS X 10_15_7) AppleWebKit/537.36 (KHTML, like Gecko) Chrome/96.0.4664.110 Safari/537.36" etag="MolgW7LO3_-xy9Nf5o__" version="15.9.6" type="github">
  <diagram id="h_QSoF91X_vydStyci-p" name="Page-1">
    <mxGraphModel dx="1639" dy="1901" grid="1" gridSize="10" guides="1" tooltips="1" connect="1" arrows="1" fold="1" page="1" pageScale="1" pageWidth="827" pageHeight="1169" math="0" shadow="0">
      <root>
        <mxCell id="0" />
        <mxCell id="1" parent="0" />
        <mxCell id="Q4rYyooRw7urS4sZpZTU-62" value="" style="rounded=0;whiteSpace=wrap;html=1;fontSize=12;fontColor=#000000;" vertex="1" parent="1">
          <mxGeometry x="360" y="660" width="500" height="680" as="geometry" />
        </mxCell>
        <mxCell id="Q4rYyooRw7urS4sZpZTU-45" value="" style="rounded=0;whiteSpace=wrap;html=1;fontSize=18;fontColor=#FFD966;" vertex="1" parent="1">
          <mxGeometry x="720" y="870" width="120" height="130" as="geometry" />
        </mxCell>
        <mxCell id="Q4rYyooRw7urS4sZpZTU-1" value="main" style="rounded=0;whiteSpace=wrap;html=1;" vertex="1" parent="1">
          <mxGeometry x="80" y="120" width="80" height="60" as="geometry" />
        </mxCell>
        <mxCell id="Q4rYyooRw7urS4sZpZTU-2" value="&lt;font style=&quot;font-size: 18px&quot;&gt;must_eat&lt;br&gt;뮤텍스&lt;/font&gt;" style="shape=hexagon;perimeter=hexagonPerimeter2;whiteSpace=wrap;html=1;fixedSize=1;fillColor=#d5e8d4;strokeColor=#82b366;" vertex="1" parent="1">
          <mxGeometry x="80" y="-80" width="120" height="80" as="geometry" />
        </mxCell>
        <mxCell id="Q4rYyooRw7urS4sZpZTU-3" value="&lt;font color=&quot;#3333ff&quot;&gt;main thread&lt;/font&gt;" style="ellipse;whiteSpace=wrap;html=1;" vertex="1" parent="1">
          <mxGeometry x="70" y="70" width="100" height="40" as="geometry" />
        </mxCell>
        <mxCell id="Q4rYyooRw7urS4sZpZTU-4" value="init_all" style="rounded=0;whiteSpace=wrap;html=1;" vertex="1" parent="1">
          <mxGeometry x="240" y="120" width="80" height="60" as="geometry" />
        </mxCell>
        <mxCell id="Q4rYyooRw7urS4sZpZTU-5" value="init_philos" style="rounded=0;whiteSpace=wrap;html=1;" vertex="1" parent="1">
          <mxGeometry x="400" y="120" width="80" height="60" as="geometry" />
        </mxCell>
        <mxCell id="Q4rYyooRw7urS4sZpZTU-6" value="init_mutexes" style="rounded=0;whiteSpace=wrap;html=1;" vertex="1" parent="1">
          <mxGeometry x="400" y="320" width="80" height="60" as="geometry" />
        </mxCell>
        <mxCell id="Q4rYyooRw7urS4sZpZTU-7" value="multi_thread" style="rounded=0;whiteSpace=wrap;html=1;" vertex="1" parent="1">
          <mxGeometry x="240" y="560" width="80" height="60" as="geometry" />
        </mxCell>
        <mxCell id="Q4rYyooRw7urS4sZpZTU-9" value="잠금" style="shape=step;perimeter=stepPerimeter;whiteSpace=wrap;html=1;fixedSize=1;fillColor=#d5e8d4;strokeColor=#82b366;" vertex="1" parent="1">
          <mxGeometry x="560" y="200" width="80" height="40" as="geometry" />
        </mxCell>
        <mxCell id="Q4rYyooRw7urS4sZpZTU-11" value="&lt;font color=&quot;#3333ff&quot;&gt;main thread&lt;/font&gt;" style="ellipse;whiteSpace=wrap;html=1;" vertex="1" parent="1">
          <mxGeometry x="230" y="70" width="100" height="40" as="geometry" />
        </mxCell>
        <mxCell id="Q4rYyooRw7urS4sZpZTU-12" value="&lt;font color=&quot;#3333ff&quot;&gt;main thread&lt;/font&gt;" style="ellipse;whiteSpace=wrap;html=1;" vertex="1" parent="1">
          <mxGeometry x="230" y="510" width="100" height="40" as="geometry" />
        </mxCell>
        <mxCell id="Q4rYyooRw7urS4sZpZTU-13" value="&lt;font color=&quot;#ff0000&quot;&gt;malloc(philos)&lt;/font&gt;" style="rounded=0;whiteSpace=wrap;html=1;" vertex="1" parent="1">
          <mxGeometry x="560" y="120" width="80" height="60" as="geometry" />
        </mxCell>
        <mxCell id="Q4rYyooRw7urS4sZpZTU-14" value="&lt;font style=&quot;font-size: 18px&quot;&gt;dining&lt;br&gt;뮤텍스&lt;/font&gt;" style="shape=hexagon;perimeter=hexagonPerimeter2;whiteSpace=wrap;html=1;fixedSize=1;fillColor=#dae8fc;strokeColor=#6c8ebf;" vertex="1" parent="1">
          <mxGeometry x="200" y="-80" width="120" height="80" as="geometry" />
        </mxCell>
        <mxCell id="Q4rYyooRw7urS4sZpZTU-15" value="&lt;font style=&quot;font-size: 18px&quot;&gt;forks&lt;br&gt;뮤텍스 5&lt;/font&gt;" style="shape=hexagon;perimeter=hexagonPerimeter2;whiteSpace=wrap;html=1;fixedSize=1;fillColor=#e1d5e7;strokeColor=#9673a6;" vertex="1" parent="1">
          <mxGeometry x="320" y="-80" width="120" height="80" as="geometry" />
        </mxCell>
        <mxCell id="Q4rYyooRw7urS4sZpZTU-16" value="&lt;font style=&quot;font-size: 18px&quot;&gt;write&lt;br&gt;뮤텍스&lt;/font&gt;" style="shape=hexagon;perimeter=hexagonPerimeter2;whiteSpace=wrap;html=1;fixedSize=1;fillColor=#fff2cc;strokeColor=#d6b656;" vertex="1" parent="1">
          <mxGeometry x="440" y="-80" width="120" height="80" as="geometry" />
        </mxCell>
        <mxCell id="Q4rYyooRw7urS4sZpZTU-17" value="&lt;font style=&quot;font-size: 18px&quot;&gt;end&lt;br&gt;뮤텍스&lt;/font&gt;" style="shape=hexagon;perimeter=hexagonPerimeter2;whiteSpace=wrap;html=1;fixedSize=1;fillColor=#f8cecc;strokeColor=#b85450;" vertex="1" parent="1">
          <mxGeometry x="560" y="-80" width="120" height="80" as="geometry" />
        </mxCell>
        <mxCell id="Q4rYyooRw7urS4sZpZTU-18" value="&lt;font color=&quot;#3333ff&quot;&gt;main thread&lt;/font&gt;" style="ellipse;whiteSpace=wrap;html=1;" vertex="1" parent="1">
          <mxGeometry x="390" y="70" width="100" height="40" as="geometry" />
        </mxCell>
        <mxCell id="Q4rYyooRw7urS4sZpZTU-19" value="&lt;font color=&quot;#3333ff&quot;&gt;main thread&lt;/font&gt;" style="ellipse;whiteSpace=wrap;html=1;" vertex="1" parent="1">
          <mxGeometry x="390" y="270" width="100" height="40" as="geometry" />
        </mxCell>
        <mxCell id="Q4rYyooRw7urS4sZpZTU-20" value="&lt;font color=&quot;#ff0000&quot;&gt;malloc(forks)&lt;/font&gt;" style="rounded=0;whiteSpace=wrap;html=1;" vertex="1" parent="1">
          <mxGeometry x="560" y="320" width="80" height="60" as="geometry" />
        </mxCell>
        <mxCell id="Q4rYyooRw7urS4sZpZTU-21" value="잠금" style="shape=step;perimeter=stepPerimeter;whiteSpace=wrap;html=1;fixedSize=1;fillColor=#f8cecc;strokeColor=#b85450;" vertex="1" parent="1">
          <mxGeometry x="560" y="400" width="80" height="40" as="geometry" />
        </mxCell>
        <mxCell id="Q4rYyooRw7urS4sZpZTU-22" value="must_eat&lt;br&gt;monitor" style="rounded=0;whiteSpace=wrap;html=1;" vertex="1" parent="1">
          <mxGeometry x="400" y="560" width="80" height="60" as="geometry" />
        </mxCell>
        <mxCell id="Q4rYyooRw7urS4sZpZTU-23" value="&lt;font color=&quot;#7ea6e0&quot;&gt;thread 1&lt;/font&gt;" style="ellipse;whiteSpace=wrap;html=1;" vertex="1" parent="1">
          <mxGeometry x="390" y="510" width="100" height="40" as="geometry" />
        </mxCell>
        <mxCell id="Q4rYyooRw7urS4sZpZTU-25" value="잠금" style="shape=step;perimeter=stepPerimeter;whiteSpace=wrap;html=1;fixedSize=1;fillColor=#d5e8d4;strokeColor=#82b366;" vertex="1" parent="1">
          <mxGeometry x="560" y="560" width="80" height="40" as="geometry" />
        </mxCell>
        <mxCell id="Q4rYyooRw7urS4sZpZTU-26" value="해제" style="shape=step;perimeter=stepPerimeter;whiteSpace=wrap;html=1;fixedSize=1;fillColor=#f8cecc;strokeColor=#b85450;" vertex="1" parent="1">
          <mxGeometry x="560" y="610" width="80" height="40" as="geometry" />
        </mxCell>
        <mxCell id="Q4rYyooRw7urS4sZpZTU-27" value="dining_philo" style="rounded=0;whiteSpace=wrap;html=1;" vertex="1" parent="1">
          <mxGeometry x="400" y="760" width="80" height="60" as="geometry" />
        </mxCell>
        <mxCell id="Q4rYyooRw7urS4sZpZTU-28" value="&lt;font color=&quot;#67ab9f&quot;&gt;thread 2&lt;/font&gt;" style="ellipse;whiteSpace=wrap;html=1;" vertex="1" parent="1">
          <mxGeometry x="390" y="710" width="100" height="40" as="geometry" />
        </mxCell>
        <mxCell id="Q4rYyooRw7urS4sZpZTU-29" value="philo_monitor" style="rounded=0;whiteSpace=wrap;html=1;" vertex="1" parent="1">
          <mxGeometry x="560" y="760" width="80" height="60" as="geometry" />
        </mxCell>
        <mxCell id="Q4rYyooRw7urS4sZpZTU-30" value="&lt;font color=&quot;#ffd966&quot;&gt;thread 3&lt;/font&gt;" style="ellipse;whiteSpace=wrap;html=1;" vertex="1" parent="1">
          <mxGeometry x="550" y="710" width="100" height="40" as="geometry" />
        </mxCell>
        <mxCell id="Q4rYyooRw7urS4sZpZTU-31" value="get_forks" style="rounded=0;whiteSpace=wrap;html=1;" vertex="1" parent="1">
          <mxGeometry x="560" y="920" width="80" height="60" as="geometry" />
        </mxCell>
        <mxCell id="Q4rYyooRw7urS4sZpZTU-32" value="eating" style="rounded=0;whiteSpace=wrap;html=1;" vertex="1" parent="1">
          <mxGeometry x="560" y="1000" width="80" height="60" as="geometry" />
        </mxCell>
        <mxCell id="Q4rYyooRw7urS4sZpZTU-39" value="" style="rounded=0;whiteSpace=wrap;html=1;fontSize=18;fontColor=#FFD966;" vertex="1" parent="1">
          <mxGeometry x="720" y="680" width="120" height="180" as="geometry" />
        </mxCell>
        <mxCell id="Q4rYyooRw7urS4sZpZTU-34" value="잠금" style="shape=step;perimeter=stepPerimeter;whiteSpace=wrap;html=1;fixedSize=1;fillColor=#dae8fc;strokeColor=#6c8ebf;" vertex="1" parent="1">
          <mxGeometry x="740" y="700" width="80" height="40" as="geometry" />
        </mxCell>
        <mxCell id="Q4rYyooRw7urS4sZpZTU-35" value="해제" style="shape=step;perimeter=stepPerimeter;whiteSpace=wrap;html=1;fixedSize=1;fillColor=#f8cecc;strokeColor=#b85450;" vertex="1" parent="1">
          <mxGeometry x="740" y="750" width="80" height="40" as="geometry" />
        </mxCell>
        <mxCell id="Q4rYyooRw7urS4sZpZTU-36" value="해제" style="shape=step;perimeter=stepPerimeter;whiteSpace=wrap;html=1;fixedSize=1;fillColor=#dae8fc;strokeColor=#6c8ebf;" vertex="1" parent="1">
          <mxGeometry x="740" y="800" width="80" height="40" as="geometry" />
        </mxCell>
        <mxCell id="Q4rYyooRw7urS4sZpZTU-41" value="put_down&lt;br&gt;forks" style="rounded=0;whiteSpace=wrap;html=1;" vertex="1" parent="1">
          <mxGeometry x="560" y="1080" width="80" height="60" as="geometry" />
        </mxCell>
        <mxCell id="Q4rYyooRw7urS4sZpZTU-42" value="&lt;font color=&quot;#67ab9f&quot;&gt;thread 2&lt;/font&gt;" style="ellipse;whiteSpace=wrap;html=1;" vertex="1" parent="1">
          <mxGeometry x="550" y="870" width="100" height="40" as="geometry" />
        </mxCell>
        <mxCell id="Q4rYyooRw7urS4sZpZTU-43" value="잠금" style="shape=step;perimeter=stepPerimeter;whiteSpace=wrap;html=1;fixedSize=1;fillColor=#e1d5e7;strokeColor=#9673a6;" vertex="1" parent="1">
          <mxGeometry x="740" y="890" width="80" height="40" as="geometry" />
        </mxCell>
        <mxCell id="Q4rYyooRw7urS4sZpZTU-44" value="잠금" style="shape=step;perimeter=stepPerimeter;whiteSpace=wrap;html=1;fixedSize=1;fillColor=#e1d5e7;strokeColor=#9673a6;" vertex="1" parent="1">
          <mxGeometry x="740" y="940" width="80" height="40" as="geometry" />
        </mxCell>
        <mxCell id="Q4rYyooRw7urS4sZpZTU-47" value="" style="rounded=0;whiteSpace=wrap;html=1;fontSize=18;fontColor=#FFD966;" vertex="1" parent="1">
          <mxGeometry x="720" y="1010" width="120" height="180" as="geometry" />
        </mxCell>
        <mxCell id="Q4rYyooRw7urS4sZpZTU-48" value="잠금" style="shape=step;perimeter=stepPerimeter;whiteSpace=wrap;html=1;fixedSize=1;fillColor=#dae8fc;strokeColor=#6c8ebf;" vertex="1" parent="1">
          <mxGeometry x="740" y="1030" width="80" height="40" as="geometry" />
        </mxCell>
        <mxCell id="Q4rYyooRw7urS4sZpZTU-49" value="해제" style="shape=step;perimeter=stepPerimeter;whiteSpace=wrap;html=1;fixedSize=1;fillColor=#dae8fc;strokeColor=#6c8ebf;" vertex="1" parent="1">
          <mxGeometry x="740" y="1080" width="80" height="40" as="geometry" />
        </mxCell>
        <mxCell id="Q4rYyooRw7urS4sZpZTU-50" value="해제" style="shape=step;perimeter=stepPerimeter;whiteSpace=wrap;html=1;fixedSize=1;fillColor=#d5e8d4;strokeColor=#82b366;" vertex="1" parent="1">
          <mxGeometry x="740" y="1130" width="80" height="40" as="geometry" />
        </mxCell>
        <mxCell id="Q4rYyooRw7urS4sZpZTU-51" value="&lt;meta charset=&quot;utf-8&quot;&gt;&lt;span style=&quot;color: rgb(0, 0, 0); font-family: helvetica; font-size: 12px; font-style: normal; font-weight: 400; letter-spacing: normal; text-align: center; text-indent: 0px; text-transform: none; word-spacing: 0px; background-color: rgb(248, 249, 250); display: inline; float: none;&quot;&gt;x 철학자수 x 먹어야하는&lt;/span&gt;" style="text;whiteSpace=wrap;html=1;fontSize=12;fontColor=#000000;" vertex="1" parent="1">
          <mxGeometry x="650" y="565" width="140" height="30" as="geometry" />
        </mxCell>
        <mxCell id="Q4rYyooRw7urS4sZpZTU-52" value="" style="rounded=0;whiteSpace=wrap;html=1;fontSize=18;fontColor=#FFD966;" vertex="1" parent="1">
          <mxGeometry x="720" y="1199" width="120" height="130" as="geometry" />
        </mxCell>
        <mxCell id="Q4rYyooRw7urS4sZpZTU-53" value="잠금" style="shape=step;perimeter=stepPerimeter;whiteSpace=wrap;html=1;fixedSize=1;fillColor=#e1d5e7;strokeColor=#9673a6;" vertex="1" parent="1">
          <mxGeometry x="740" y="1219" width="80" height="40" as="geometry" />
        </mxCell>
        <mxCell id="Q4rYyooRw7urS4sZpZTU-54" value="잠금" style="shape=step;perimeter=stepPerimeter;whiteSpace=wrap;html=1;fixedSize=1;fillColor=#e1d5e7;strokeColor=#9673a6;" vertex="1" parent="1">
          <mxGeometry x="740" y="1269" width="80" height="40" as="geometry" />
        </mxCell>
        <mxCell id="Q4rYyooRw7urS4sZpZTU-55" value="잠금" style="shape=step;perimeter=stepPerimeter;whiteSpace=wrap;html=1;fixedSize=1;fillColor=#f8cecc;strokeColor=#b85450;" vertex="1" parent="1">
          <mxGeometry x="80" y="1280" width="80" height="40" as="geometry" />
        </mxCell>
        <mxCell id="Q4rYyooRw7urS4sZpZTU-56" value="" style="endArrow=none;html=1;rounded=0;fontSize=12;fontColor=#000000;entryX=0.5;entryY=1;entryDx=0;entryDy=0;" edge="1" parent="1" target="Q4rYyooRw7urS4sZpZTU-1">
          <mxGeometry width="50" height="50" relative="1" as="geometry">
            <mxPoint x="120" y="1280" as="sourcePoint" />
            <mxPoint x="160" y="280" as="targetPoint" />
          </mxGeometry>
        </mxCell>
        <mxCell id="Q4rYyooRw7urS4sZpZTU-57" value="" style="endArrow=none;html=1;rounded=0;fontSize=12;fontColor=#000000;" edge="1" parent="1">
          <mxGeometry width="50" height="50" relative="1" as="geometry">
            <mxPoint x="160" y="149.5" as="sourcePoint" />
            <mxPoint x="240" y="149.5" as="targetPoint" />
          </mxGeometry>
        </mxCell>
        <mxCell id="Q4rYyooRw7urS4sZpZTU-58" value="" style="endArrow=none;html=1;rounded=0;fontSize=12;fontColor=#000000;" edge="1" parent="1">
          <mxGeometry width="50" height="50" relative="1" as="geometry">
            <mxPoint x="320" y="149.5" as="sourcePoint" />
            <mxPoint x="400" y="149.5" as="targetPoint" />
          </mxGeometry>
        </mxCell>
        <mxCell id="Q4rYyooRw7urS4sZpZTU-59" value="" style="endArrow=none;html=1;rounded=0;fontSize=12;fontColor=#000000;" edge="1" parent="1">
          <mxGeometry width="50" height="50" relative="1" as="geometry">
            <mxPoint x="480" y="149.5" as="sourcePoint" />
            <mxPoint x="560" y="149.5" as="targetPoint" />
          </mxGeometry>
        </mxCell>
        <mxCell id="Q4rYyooRw7urS4sZpZTU-60" value="" style="endArrow=none;html=1;rounded=0;fontSize=12;fontColor=#000000;exitX=1;exitY=0.75;exitDx=0;exitDy=0;" edge="1" parent="1" source="Q4rYyooRw7urS4sZpZTU-5">
          <mxGeometry width="50" height="50" relative="1" as="geometry">
            <mxPoint x="500" y="219.5" as="sourcePoint" />
            <mxPoint x="580" y="219.5" as="targetPoint" />
            <Array as="points">
              <mxPoint x="520" y="165" />
              <mxPoint x="520" y="220" />
            </Array>
          </mxGeometry>
        </mxCell>
        <mxCell id="Q4rYyooRw7urS4sZpZTU-61" value="" style="endArrow=none;html=1;rounded=0;fontSize=12;fontColor=#000000;exitX=1.014;exitY=0.639;exitDx=0;exitDy=0;exitPerimeter=0;entryX=0;entryY=0.5;entryDx=0;entryDy=0;" edge="1" parent="1" source="Q4rYyooRw7urS4sZpZTU-1" target="Q4rYyooRw7urS4sZpZTU-7">
          <mxGeometry width="50" height="50" relative="1" as="geometry">
            <mxPoint x="270" y="310" as="sourcePoint" />
            <mxPoint x="350" y="310" as="targetPoint" />
            <Array as="points">
              <mxPoint x="200" y="158" />
              <mxPoint x="200" y="590" />
            </Array>
          </mxGeometry>
        </mxCell>
        <mxCell id="Q4rYyooRw7urS4sZpZTU-63" value="&lt;span style=&quot;color: rgb(0 , 0 , 0) ; font-family: &amp;#34;helvetica&amp;#34; ; font-style: normal ; font-weight: 400 ; letter-spacing: normal ; text-align: center ; text-indent: 0px ; text-transform: none ; word-spacing: 0px ; background-color: rgb(248 , 249 , 250) ; display: inline ; float: none&quot;&gt;&lt;font style=&quot;font-size: 26px&quot;&gt;x 철학자수&lt;/font&gt;&lt;/span&gt;" style="text;whiteSpace=wrap;html=1;fontSize=12;fontColor=#000000;" vertex="1" parent="1">
          <mxGeometry x="870" y="680" width="130" height="40" as="geometry" />
        </mxCell>
        <mxCell id="Q4rYyooRw7urS4sZpZTU-64" value="" style="endArrow=none;html=1;rounded=0;fontSize=12;fontColor=#000000;" edge="1" parent="1">
          <mxGeometry width="50" height="50" relative="1" as="geometry">
            <mxPoint x="320" y="589.5" as="sourcePoint" />
            <mxPoint x="400" y="589.5" as="targetPoint" />
          </mxGeometry>
        </mxCell>
        <mxCell id="Q4rYyooRw7urS4sZpZTU-65" value="" style="endArrow=none;html=1;rounded=0;fontSize=12;fontColor=#000000;entryX=0;entryY=0.5;entryDx=0;entryDy=0;" edge="1" parent="1" target="Q4rYyooRw7urS4sZpZTU-25">
          <mxGeometry width="50" height="50" relative="1" as="geometry">
            <mxPoint x="480" y="579.5" as="sourcePoint" />
            <mxPoint x="560" y="579.5" as="targetPoint" />
          </mxGeometry>
        </mxCell>
        <mxCell id="Q4rYyooRw7urS4sZpZTU-66" value="" style="endArrow=none;html=1;rounded=0;fontSize=12;fontColor=#000000;exitX=1;exitY=0.75;exitDx=0;exitDy=0;" edge="1" parent="1" source="Q4rYyooRw7urS4sZpZTU-22">
          <mxGeometry width="50" height="50" relative="1" as="geometry">
            <mxPoint x="500" y="629.5" as="sourcePoint" />
            <mxPoint x="580" y="629.5" as="targetPoint" />
            <Array as="points">
              <mxPoint x="530" y="605" />
              <mxPoint x="530" y="630" />
            </Array>
          </mxGeometry>
        </mxCell>
        <mxCell id="Q4rYyooRw7urS4sZpZTU-67" value="" style="endArrow=none;html=1;rounded=0;fontSize=12;fontColor=#000000;exitX=0.5;exitY=1;exitDx=0;exitDy=0;" edge="1" parent="1" source="Q4rYyooRw7urS4sZpZTU-7">
          <mxGeometry width="50" height="50" relative="1" as="geometry">
            <mxPoint x="280" y="680" as="sourcePoint" />
            <mxPoint x="360" y="680" as="targetPoint" />
            <Array as="points">
              <mxPoint x="280" y="680" />
            </Array>
          </mxGeometry>
        </mxCell>
        <mxCell id="Q4rYyooRw7urS4sZpZTU-68" value="" style="endArrow=none;html=1;rounded=0;fontSize=12;fontColor=#000000;" edge="1" parent="1">
          <mxGeometry width="50" height="50" relative="1" as="geometry">
            <mxPoint x="480" y="790" as="sourcePoint" />
            <mxPoint x="560" y="790" as="targetPoint" />
          </mxGeometry>
        </mxCell>
        <mxCell id="Q4rYyooRw7urS4sZpZTU-69" value="" style="endArrow=none;html=1;rounded=0;fontSize=12;fontColor=#000000;" edge="1" parent="1">
          <mxGeometry width="50" height="50" relative="1" as="geometry">
            <mxPoint x="640" y="790" as="sourcePoint" />
            <mxPoint x="720" y="790" as="targetPoint" />
          </mxGeometry>
        </mxCell>
        <mxCell id="Q4rYyooRw7urS4sZpZTU-70" value="" style="endArrow=none;html=1;rounded=0;fontSize=12;fontColor=#000000;" edge="1" parent="1">
          <mxGeometry width="50" height="50" relative="1" as="geometry">
            <mxPoint x="640" y="949.5" as="sourcePoint" />
            <mxPoint x="720" y="949.5" as="targetPoint" />
          </mxGeometry>
        </mxCell>
        <mxCell id="Q4rYyooRw7urS4sZpZTU-71" value="" style="endArrow=none;html=1;rounded=0;fontSize=12;fontColor=#000000;" edge="1" parent="1">
          <mxGeometry width="50" height="50" relative="1" as="geometry">
            <mxPoint x="640" y="1029.5" as="sourcePoint" />
            <mxPoint x="720" y="1029.5" as="targetPoint" />
          </mxGeometry>
        </mxCell>
        <mxCell id="Q4rYyooRw7urS4sZpZTU-72" value="" style="endArrow=none;html=1;rounded=0;fontSize=12;fontColor=#000000;" edge="1" parent="1">
          <mxGeometry width="50" height="50" relative="1" as="geometry">
            <mxPoint x="600" y="1140" as="sourcePoint" />
            <mxPoint x="720" y="1260" as="targetPoint" />
            <Array as="points">
              <mxPoint x="600" y="1260" />
            </Array>
          </mxGeometry>
        </mxCell>
        <mxCell id="Q4rYyooRw7urS4sZpZTU-73" value="" style="endArrow=none;html=1;rounded=0;fontSize=12;fontColor=#000000;entryX=0;entryY=0.5;entryDx=0;entryDy=0;exitX=0.5;exitY=1;exitDx=0;exitDy=0;" edge="1" parent="1" source="Q4rYyooRw7urS4sZpZTU-27" target="Q4rYyooRw7urS4sZpZTU-31">
          <mxGeometry width="50" height="50" relative="1" as="geometry">
            <mxPoint x="430" y="820" as="sourcePoint" />
            <mxPoint x="550" y="940" as="targetPoint" />
            <Array as="points">
              <mxPoint x="440" y="950" />
            </Array>
          </mxGeometry>
        </mxCell>
        <mxCell id="Q4rYyooRw7urS4sZpZTU-74" value="" style="endArrow=none;html=1;rounded=0;fontSize=12;fontColor=#000000;" edge="1" parent="1">
          <mxGeometry width="50" height="50" relative="1" as="geometry">
            <mxPoint x="440" y="950" as="sourcePoint" />
            <mxPoint x="560" y="1030" as="targetPoint" />
            <Array as="points">
              <mxPoint x="440" y="1030" />
            </Array>
          </mxGeometry>
        </mxCell>
        <mxCell id="Q4rYyooRw7urS4sZpZTU-76" value="" style="endArrow=none;html=1;rounded=0;fontSize=12;fontColor=#000000;" edge="1" parent="1">
          <mxGeometry width="50" height="50" relative="1" as="geometry">
            <mxPoint x="440" y="1030" as="sourcePoint" />
            <mxPoint x="560" y="1110" as="targetPoint" />
            <Array as="points">
              <mxPoint x="440" y="1110" />
            </Array>
          </mxGeometry>
        </mxCell>
        <mxCell id="Q4rYyooRw7urS4sZpZTU-77" value="" style="endArrow=none;html=1;rounded=0;fontSize=12;fontColor=#000000;" edge="1" parent="1">
          <mxGeometry width="50" height="50" relative="1" as="geometry">
            <mxPoint x="480" y="349.5" as="sourcePoint" />
            <mxPoint x="560" y="349.5" as="targetPoint" />
          </mxGeometry>
        </mxCell>
        <mxCell id="Q4rYyooRw7urS4sZpZTU-78" value="" style="endArrow=none;html=1;rounded=0;fontSize=12;fontColor=#000000;exitX=1.014;exitY=0.639;exitDx=0;exitDy=0;exitPerimeter=0;" edge="1" parent="1">
          <mxGeometry width="50" height="50" relative="1" as="geometry">
            <mxPoint x="319.9999999999999" y="168.34000000000015" as="sourcePoint" />
            <mxPoint x="399" y="350" as="targetPoint" />
            <Array as="points">
              <mxPoint x="358.88" y="168" />
              <mxPoint x="359" y="350" />
            </Array>
          </mxGeometry>
        </mxCell>
        <mxCell id="Q4rYyooRw7urS4sZpZTU-79" value="" style="endArrow=none;html=1;rounded=0;fontSize=12;fontColor=#000000;exitX=1;exitY=0.75;exitDx=0;exitDy=0;entryX=0;entryY=0.5;entryDx=0;entryDy=0;" edge="1" parent="1" target="Q4rYyooRw7urS4sZpZTU-21">
          <mxGeometry width="50" height="50" relative="1" as="geometry">
            <mxPoint x="480" y="360" as="sourcePoint" />
            <mxPoint x="580" y="414.5" as="targetPoint" />
            <Array as="points">
              <mxPoint x="520" y="360" />
              <mxPoint x="520" y="420" />
            </Array>
          </mxGeometry>
        </mxCell>
      </root>
    </mxGraphModel>
  </diagram>
</mxfile>
